<?xml version="1.0" encoding="UTF-8"?>
<svg id="Layer_2" data-name="Layer 2" xmlns="http://www.w3.org/2000/svg" xmlns:xlink="http://www.w3.org/1999/xlink" viewBox="0 0 801 401">
  <defs>
    <linearGradient id="linear-gradient" x1="400.5" y1="553.5" x2="400.5" y2="153.5" gradientTransform="translate(0 -153)" gradientUnits="userSpaceOnUse">
      <stop offset="0" stop-color="#0e121b"/>
      <stop offset="1" stop-color="#181d24"/>
    </linearGradient>
    <clipPath id="clippath">
      <rect x="100.5" y="84.46" width="379.68" height="232.08" fill="none"/>
    </clipPath>
    <linearGradient id="linear-gradient-2" x1="534.77" y1="1040.99" x2="495.06" y2="1121.97" gradientTransform="translate(-193.52 -721.78) scale(.84)" gradientUnits="userSpaceOnUse">
      <stop offset="0" stop-color="#3f873f"/>
      <stop offset=".33" stop-color="#3f8b3d"/>
      <stop offset=".64" stop-color="#3e9638"/>
      <stop offset=".93" stop-color="#3da92e"/>
      <stop offset="1" stop-color="#3dae2b"/>
    </linearGradient>
    <linearGradient id="linear-gradient-3" x1="510.73" y1="1083.34" x2="622.11" y2="1001.04" gradientTransform="translate(-193.52 -721.78) scale(.84)" gradientUnits="userSpaceOnUse">
      <stop offset=".14" stop-color="#3f873f"/>
      <stop offset=".4" stop-color="#52a044"/>
      <stop offset=".71" stop-color="#64b749"/>
      <stop offset=".91" stop-color="#6abf4b"/>
    </linearGradient>
    <linearGradient id="linear-gradient-4" x1="466.95" y1="1078.01" x2="568.53" y2="1078.01" gradientTransform="translate(-193.52 -721.78) scale(.84)" gradientUnits="userSpaceOnUse">
      <stop offset=".09" stop-color="#6abf4b"/>
      <stop offset=".29" stop-color="#64b749"/>
      <stop offset=".6" stop-color="#52a044"/>
      <stop offset=".86" stop-color="#3f873f"/>
    </linearGradient>
  </defs>
  <g id="Layer_2-2" data-name="Layer 2-2">
    <g>
      <rect x=".5" y=".5" width="800" height="400" fill="url(#linear-gradient)" stroke="#000" stroke-miterlimit="10"/>
      <g clip-path="url(#clippath)">
        <g>
          <path d="M288.11,316.54c-1.28,0-2.49-.34-3.6-.94l-11.41-6.78c-1.72-.94-.86-1.28-.34-1.45,2.32-.77,2.74-.94,5.15-2.32.25-.17.59-.08.86.08l8.77,5.23c.34.17.77.17,1.01,0l34.25-19.79c.34-.17.52-.52.52-.94v-39.49c0-.42-.17-.77-.52-.94l-34.25-19.72c-.34-.17-.77-.17-1.01,0l-34.25,19.72c-.34.17-.52.59-.52.94v39.49c0,.34.17.77.52.94l9.36,5.4c5.05,2.57,8.23-.42,8.23-3.43v-38.98c0-.52.42-1.01,1.01-1.01h4.38c.52,0,1.01.42,1.01,1.01v38.98c0,6.78-3.69,10.7-10.13,10.7-1.97,0-3.5,0-7.89-2.14l-9.02-5.13c-2.24-1.28-3.6-3.68-3.6-6.26v-39.49c0-2.57,1.38-4.96,3.6-6.26l34.25-19.79c2.14-1.19,5.05-1.19,7.22,0l34.25,19.79c2.24,1.28,3.62,3.68,3.62,6.26v39.49c0,2.57-1.38,4.96-3.62,6.26l-34.25,19.79c-1.01.42-2.32.77-3.62.77h0v.02h.02Z" fill="#5fa04e"/>
          <path d="M298.75,289.38c-15.01,0-18.11-6.85-18.11-12.69,0-.52.42-1.01,1.01-1.01h4.46c.52,0,.94.34.94.86.69,4.54,2.66,6.78,11.75,6.78,7.22,0,10.3-1.63,10.3-5.49,0-2.24-.86-3.85-12.1-4.96-9.36-.94-15.18-3.01-15.18-10.45,0-6.93,5.84-11.05,15.62-11.05,10.99,0,16.39,3.77,17.08,12,0,.25-.08.52-.25.77-.17.17-.42.34-.69.34h-4.56c-.42,0-.86-.34-.94-.77-1.01-4.71-3.68-6.26-10.72-6.26-7.89,0-8.84,2.74-8.84,4.79,0,2.49,1.11,3.25,11.75,4.61,10.55,1.36,15.53,3.35,15.53,10.7s-6.28,11.81-17.08,11.81h0l.02.02h.01Z" fill="#5fa04e"/>
          <path d="M348.18,247.91c0,3.6-3.01,6.6-6.6,6.6s-6.6-2.91-6.6-6.6,3.08-6.6,6.6-6.6,6.6,2.91,6.6,6.6ZM336.01,247.91c0,3.08,2.49,5.57,5.49,5.57s5.57-2.57,5.57-5.57-2.49-5.49-5.57-5.49c-2.91,0-5.49,2.41-5.49,5.49ZM339.09,244.23h2.57c.86,0,2.57,0,2.57,1.97,0,1.36-.86,1.63-1.38,1.8,1.01.08,1.13.77,1.21,1.72.08.59.17,1.63.34,1.97h-1.55c0-.34-.25-2.24-.25-2.32-.08-.42-.25-.59-.77-.59h-1.28v3.01h-1.47v-7.54h0l.02-.02h-.01ZM340.47,247.49h1.13c.94,0,1.11-.69,1.11-1.01,0-1.01-.69-1.01-1.11-1.01h-1.21v2.07h.08v-.04h0Z" fill="#5fa04e"/>
          <path d="M181.94,162.09c0-1.53-.86-3.01-2.24-3.77l-36.3-20.98c-.59-.34-1.3-.52-1.97-.59h-.34c-.69,0-1.38.25-1.97.59l-36.37,20.89c-1.38.77-2.24,2.24-2.24,3.85l.08,56.21c0,.77.42,1.53,1.11,1.9.69.42,1.55.42,2.14,0l21.63-12.35c1.38-.77,2.24-2.24,2.24-3.77v-26.3c0-1.53.86-3.01,2.24-3.77l9.19-5.32c.69-.42,1.47-.59,2.24-.59s1.55.17,2.14.59l9.19,5.32c1.38.77,2.24,2.24,2.24,3.77v26.3c0,1.53.86,3.01,2.24,3.77l21.46,12.35c.69.42,1.55.42,2.24,0,.69-.34,1.11-1.11,1.11-1.9v-56.21h0l-.06.02h0Z" fill="#fff" fill-rule="evenodd"/>
          <path d="M356.86,84.71c-.69-.34-1.55-.34-2.14,0-.69.42-1.13,1.11-1.13,1.9v55.69c0,.52-.25,1.01-.77,1.36-.52.25-1.01.25-1.55,0l-9.09-5.23c-1.38-.77-3.01-.77-4.38,0l-36.39,20.98c-1.38.77-2.24,2.24-2.24,3.77v41.89c0,1.53.86,3.01,2.24,3.77l36.39,20.98c1.38.77,3.01.77,4.38,0l36.39-20.98c1.38-.77,2.24-2.24,2.24-3.77v-104.41c0-1.63-.86-3.08-2.24-3.85l-21.71-12.08v-.02h0ZM353.51,191.28c0,.42-.17.77-.52.94l-12.44,7.2c-.34.17-.77.17-1.11,0l-12.44-7.2c-.34-.17-.52-.59-.52-.94v-14.4c0-.42.17-.77.52-.94l12.44-7.2c.34-.17.77-.17,1.11,0l12.44,7.2c.34.17.52.59.52.94v14.4Z" fill="#fff" fill-rule="evenodd"/>
          <path d="M477.94,176.56c1.38-.77,2.14-2.24,2.14-3.77v-10.2c0-1.53-.86-3.01-2.14-3.77l-36.12-20.91c-1.38-.77-3.01-.77-4.38,0l-36.39,20.98c-1.38.77-2.24,2.24-2.24,3.77v41.89c0,1.53.86,3.01,2.24,3.77l36.12,20.56c1.38.77,3.01.77,4.29,0l21.88-12.16c.69-.34,1.13-1.11,1.13-1.9s-.42-1.53-1.13-1.9l-36.56-20.98c-.69-.42-1.13-1.11-1.13-1.9v-13.11c0-.77.42-1.53,1.13-1.9l11.41-6.51c.69-.42,1.55-.42,2.24,0l11.41,6.51c.69.42,1.11,1.11,1.11,1.9v10.28c0,.77.42,1.53,1.13,1.9.69.42,1.55.42,2.24,0l21.63-12.6h0v.04h0Z" fill="#fff" fill-rule="evenodd"/>
          <path d="M439.06,174.59c.25-.17.59-.17.86,0l6.95,4.02c.25.17.42.42.42.77v8.04c0,.34-.17.59-.42.77l-6.95,4.02c-.25.17-.59.17-.86,0l-6.95-4.02c-.25-.17-.42-.42-.42-.77v-8.04c0-.34.17-.59.42-.77l6.95-4.02h0Z" fill="#5fa04e" fill-rule="evenodd"/>
          <path d="M242.66,137.43c-1.4-.78-3.06-.78-4.44,0l-36.74,21.21c-1.4.78-2.18,2.28-2.18,3.85v42.52c0,1.57.86,3.06,2.18,3.85l36.74,21.21c1.4.78,3.06.78,4.44,0l36.74-21.21c1.4-.78,2.18-2.28,2.18-3.85v-42.52c0-1.57-.86-3.06-2.18-3.85l-36.74-21.21h0Z" fill="url(#linear-gradient-2)"/>
          <path d="M279.5,158.64l-36.91-21.21c-.36-.17-.78-.36-1.13-.44l-41.27,70.72c.36.44.9,1.07,1.34,1.34l36.72,21c1.05.61,2.28.78,3.41.44l38.84-71.06c-.25-.36-.61-.61-.96-.78h-.04Z" fill="url(#linear-gradient-3)"/>
          <path d="M279.4,208.84c1.05-.61,1.99-1.76,1.99-3.14l-40.22-68.8c-1.05-.17-2.18-.08-3.14.52l-36.66,21.13,39.53,72.12c.52-.08,1.13-.25,1.67-.52l36.83-21.31h0Z" fill="url(#linear-gradient-4)"/>
        </g>
      </g>
      <g isolation="isolate">
        <text transform="translate(358.16 316.54)" fill="#fff" font-family="OpenSans, &apos;Open Sans&apos;" font-size="51.19" isolation="isolate"><tspan x="0" y="0">Module Hooks</tspan></text>
      </g>
    </g>
  </g>
  <g>
    <circle cx="584.14" cy="100.73" r="14.87" fill="none" stroke="#fff" stroke-miterlimit="333.33" stroke-width="12"/>
    <path d="M584.14,115.59v1.63c.41,20.67,10.46,39.96,27.16,52.15,19.53,15,23.21,43,8.21,62.53-15,19.53-43,23.21-62.53,8.21-11-8.45-17.45-21.53-17.43-35.41" fill="none" stroke="#fff" stroke-miterlimit="333.33" stroke-width="12"/>
    <polyline points="561.88 204.71 539.54 182.45 539.54 204.71" fill="none" stroke="#fff" stroke-miterlimit="333.33" stroke-width="12"/>
  </g>
</svg>